<?xml version="1.0" encoding="utf-8"?>
<!-- Generator: Adobe Illustrator 27.5.0, SVG Export Plug-In . SVG Version: 6.00 Build 0)  -->
<!DOCTYPE svg PUBLIC "-//W3C//DTD SVG 1.1//EN" "http://www.w3.org/Graphics/SVG/1.1/DTD/svg11.dtd" [
	<!ENTITY ns_extend "http://ns.adobe.com/Extensibility/1.0/">
	<!ENTITY ns_ai "http://ns.adobe.com/AdobeIllustrator/10.0/">
	<!ENTITY ns_graphs "http://ns.adobe.com/Graphs/1.0/">
	<!ENTITY ns_vars "http://ns.adobe.com/Variables/1.0/">
	<!ENTITY ns_imrep "http://ns.adobe.com/ImageReplacement/1.0/">
	<!ENTITY ns_sfw "http://ns.adobe.com/SaveForWeb/1.0/">
	<!ENTITY ns_custom "http://ns.adobe.com/GenericCustomNamespace/1.0/">
	<!ENTITY ns_adobe_xpath "http://ns.adobe.com/XPath/1.0/">
]>
<svg version="1.1" id="Слой_2" xmlns:x="&ns_extend;" xmlns:i="&ns_ai;" xmlns:graph="&ns_graphs;"
	 xmlns="http://www.w3.org/2000/svg" xmlns:xlink="http://www.w3.org/1999/xlink" x="0px" y="0px" viewBox="0 0 368.5 368.5"
	 style="enable-background:new 0 0 368.5 368.5;" xml:space="preserve">
<style type="text/css">
	.st0{fill:#27C561;}
	.st1{fill:#FFFFFF;}
</style>
<metadata>
	<sfw  xmlns="&ns_sfw;">
		<slices></slices>
		<sliceSourceBounds  bottomLeftOrigin="true" height="368.5" width="368.5" x="236.7" y="-716.3"></sliceSourceBounds>
	</sfw>
</metadata>
<g>
	<g>
		<g>
			
				<rect x="0" y="0" transform="matrix(-9.610697e-14 1 -1 -9.610697e-14 368.5039 4.291678e-12)" class="st0" width="368.5" height="368.5"/>
		</g>
	</g>
	<g>
		<g>
			<path class="st1" d="M360.8,360.8H7.7V7.7h353.1V360.8z M11,357.5h346.6V11H11V357.5z"/>
		</g>
	</g>
	<g>
		<g>
			<path class="st1" d="M350.2,350.2H18.3V18.3h331.9V350.2z M21.5,347H347V21.5H21.5V347z"/>
		</g>
	</g>
	<g>
		<g>
			<path class="st1" d="M186.8,134.1c4.4,7.5,11.5,12.4,14.6,14.3c18.3,6.9,31.4,24.7,31.4,45.4c0,26.8-21.8,48.5-48.5,48.5
				c-26.8,0-48.6-21.8-48.6-48.5c0-10.6,3.4-20.4,9.2-28.4c-1.7-4.7-2.5-9.6-2.9-13.8c-10.8,10.8-17.5,25.7-17.5,42.2
				c0,33,26.8,59.8,59.8,59.8c33,0,59.8-26.8,59.8-59.8C244,161.7,218.6,135.4,186.8,134.1z"/>
		</g>
		<g>
			<path class="st1" d="M175.3,186.9c29.9,24.5,12,42.1,12,42.1c16.8-8.4,22.7-31.8-3.7-52.7S152.2,133,152.2,133
				S144.6,161.7,175.3,186.9z"/>
		</g>
		<g>
			<path class="st1" d="M188.6,167.6c34.1,30.7,20.9,51.6,20.9,51.6c13.2-12,18.2-35.3-11.9-61.6c-30.1-26.3-29.7-42.8-29.7-42.8
				S153.5,136.1,188.6,167.6z"/>
		</g>
		<g>
			<path class="st1" d="M172.9,229c0,0,13-11.5,3.6-25.2c-9.4-13.8-22.5-19-25.1-30.1c0,0-3.3,13.8,3.9,24.5
				C160.8,206.5,173.7,214.2,172.9,229z"/>
		</g>
	</g>
	<g>
		<g>
			<polygon class="st1" points="129.1,95.9 118.3,41.6 118.2,41.2 114.7,41.2 97.9,78.7 81,41.5 80.8,41.2 77.4,41.2 66.5,95.4 
				66.4,95.9 75.5,95.9 81.6,64.8 96.2,96.7 96.3,96.9 99.4,96.9 113.8,64.9 119.7,95.9 			"/>
		</g>
		<g>
			<path class="st1" d="M146.3,83.4h22.8l5.7,12.3l0.1,0.2h10.2l-25.6-54.4l-0.1-0.2h-3.2l-25.5,54.1l-0.3,0.6h10L146.3,83.4z
				 M150.1,75.1l7.5-16.4l7.7,16.4H150.1z"/>
		</g>
		<g>
			<rect x="240.2" y="42.2" class="st1" width="9.4" height="53.7"/>
		</g>
		<g>
			<path class="st1" d="M296.2,84.7c-3.8,2.3-7.9,3.5-12.1,3.5c-5.6,0-10-1.8-13.3-5.2c-3.3-3.5-4.9-8.2-4.9-13.9
				c0-5.7,1.7-10.4,5-13.9c3.3-3.5,7.7-5.3,13.2-5.3c4.6,0,8.6,1.2,12.1,3.5l1,0.7l5.1-7.4l-1.1-0.7c-5-3.1-10.7-4.7-17-4.7
				c-8,0-14.8,2.6-20,7.8c-5.3,5.2-8,11.9-8,19.9c0,8.1,2.7,14.8,8,20c5.3,5.2,12,7.8,20.1,7.8c2.7,0,5.7-0.4,8.7-1.2
				c3.1-0.8,5.8-1.9,8.2-3.3l1.1-0.7l-4.9-7.7L296.2,84.7z"/>
		</g>
		<g>
			<path class="st1" d="M94.3,280.2c4.6,0,8.6,1.2,12.1,3.5l1,0.7l5.1-7.4l-1.1-0.7c-5-3.1-10.7-4.7-17-4.7c-8,0-14.8,2.6-20,7.8
				c-5.3,5.2-8,11.9-8,19.9c0,8.1,2.7,14.8,8,20c5.3,5.2,12,7.9,20.1,7.9c2.7,0,5.7-0.4,8.7-1.2c3.1-0.8,5.8-1.9,8.2-3.3l1.1-0.7
				l-4.9-7.7l-1,0.6c-3.8,2.3-7.9,3.5-12.1,3.5c-5.6,0-10-1.8-13.3-5.2c-3.3-3.5-4.9-8.2-4.9-13.9c0-5.7,1.7-10.4,5-13.9
				C84.5,282,88.9,280.2,94.3,280.2z"/>
		</g>
		<g>
			<polygon class="st1" points="127.2,272.6 117.9,272.6 117.9,326.2 153.2,326.2 153.2,317.9 127.2,317.9 			"/>
		</g>
		<g>
			<path class="st1" d="M226.1,271.6h-3.2l-25.5,54.1l-0.3,0.6h10l5.8-12.5h22.8l5.7,12.3l0.1,0.2h10.2l-25.4-53.9L226.1,271.6z
				 M232,305.5h-15.3l7.5-16.4L232,305.5z"/>
		</g>
		<g>
			<polygon class="st1" points="293.3,308.3 259.2,271.7 259,271.6 255.5,271.6 255.5,326.2 264.4,326.2 264.4,290.6 298.5,327.1 
				298.6,327.3 302.1,327.3 302.1,272.6 293.3,272.6 			"/>
		</g>
		<g>
			<path class="st1" d="M210.8,96.9c7.1,0,13.9-1.9,20.4-5.5l0.6-0.4V67.4h-20.9v8.4h11.5v10c-3.2,1.7-6.7,2.6-10.5,2.6
				c-5.6,0-10.2-1.8-13.5-5.3c-3.4-3.5-5.1-8.2-5.1-14c0-5.6,1.8-10.2,5.3-13.8c3.5-3.6,8.1-5.4,13.6-5.4c4.2,0,8.1,1.2,11.7,3.5
				l1,0.7l5.2-7.4l-1.2-0.7c-5.2-3.1-10.9-4.7-17-4.7c-7.9,0-14.6,2.7-20.1,8c-5.5,5.3-8.3,12-8.3,19.8c0,8,2.6,14.7,7.7,20
				C196.4,94.2,203,96.9,210.8,96.9z"/>
		</g>
		<g>
			<polygon class="st1" points="168.3,302.7 186.9,302.7 186.9,294.4 168.3,294.4 168.3,281 194.1,281 194.1,272.6 158.9,272.6 
				158.9,326.2 195.2,326.2 195.2,317.9 168.3,317.9 			"/>
		</g>
	</g>
</g>
</svg>
